<svg xmlns="http://www.w3.org/2000/svg" xmlns:xlink="http://www.w3.org/1999/xlink" preserveAspectRatio="xMidYMid"
  width="15" height="30" viewBox="0 0 15 30">
  <defs>
    <style>
      .cls-fff {
        fill: #fff;
        fill-rule: evenodd;
      }
    </style>
  </defs>
  <path
    d="M7.500,29.990 C3.359,29.990 0.002,26.483 0.002,22.155 L0.002,17.008 C7.849,20.066 13.083,18.128 14.998,17.121 L14.998,22.155 C14.998,26.483 11.641,29.990 7.500,29.990 ZM0.002,16.007 L0.002,13.821 C0.002,9.897 2.767,6.654 6.372,6.083 C6.458,5.031 7.041,3.432 9.803,3.432 C9.803,3.432 13.080,3.845 13.080,0.009 L14.596,0.009 C14.596,0.009 15.265,4.654 10.152,4.654 C10.152,4.654 8.458,4.743 8.465,6.057 C12.149,6.554 14.998,9.836 14.998,13.821 L14.998,16.004 C8.957,19.199 2.416,17.032 0.002,16.007 ZM8.797,13.509 L8.797,9.798 C8.797,9.051 8.216,8.442 7.500,8.442 C6.784,8.442 6.202,9.051 6.202,9.798 L6.202,13.509 C6.202,14.258 6.784,14.867 7.500,14.867 C8.214,14.867 8.797,14.258 8.797,13.509 Z"
    class="cls-fff" />
</svg>