<svg xmlns="http://www.w3.org/2000/svg" xmlns:xlink="http://www.w3.org/1999/xlink" preserveAspectRatio="xMidYMid" width="134" height="120" viewBox="0 0 134 120">
  <defs>
    <style>
      .cls-1, .cls-2 {
        fill: #fff;
      }

      .cls-1 {
        fill-opacity: 0.05;
      }

      .cls-1, .cls-3 {
        fill-rule: evenodd;
      }

      .cls-3 {
        fill: #675190;
      }
    </style>
  </defs>
  <g>
    <path d="M2.222,67.072 C2.222,31.313 31.281,2.221 66.998,2.221 C102.715,2.221 131.773,31.313 131.773,67.072 C131.773,87.447 122.454,106.163 106.535,118.410 L108.112,119.989 C124.437,107.312 133.996,88.014 133.996,67.072 C133.996,30.086 103.941,-0.004 66.998,-0.004 C30.055,-0.004 -0.000,30.086 -0.000,67.072 C-0.000,88.014 9.558,107.312 25.883,119.989 L27.461,118.410 C11.541,106.163 2.222,87.447 2.222,67.072 Z" class="cls-1"/>
    <circle cx="67" cy="67" r="50" class="cls-2"/>
    <path d="M88.517,87.731 L43.031,87.731 C39.296,87.731 36.241,84.714 36.241,81.028 L36.241,56.547 C36.241,52.860 39.296,49.843 43.031,49.843 L68.444,49.843 L60.936,37.420 C60.541,36.781 60.748,35.939 61.395,35.549 L61.395,35.548 C62.043,35.159 62.896,35.363 63.291,36.002 L70.909,48.336 L77.140,41.372 C77.654,40.821 78.531,40.785 79.089,41.292 C79.647,41.799 79.683,42.665 79.170,43.216 L73.480,49.843 L88.517,49.843 C92.251,49.843 95.306,52.860 95.306,56.547 L95.306,81.028 C95.306,84.714 92.251,87.731 88.517,87.731 ZM90.219,57.619 C90.219,55.776 88.691,54.267 86.824,54.267 L44.723,54.267 C42.856,54.267 41.328,55.776 41.328,57.619 L41.328,79.955 C41.328,81.798 42.856,83.307 44.723,83.307 L86.824,83.307 C88.691,83.307 90.219,81.798 90.219,79.955 L90.219,57.619 ZM51.684,89.406 L79.128,89.406 C80.076,89.406 80.844,90.174 80.844,91.122 L80.844,91.128 C80.844,92.076 80.076,92.844 79.128,92.844 L51.684,92.844 C50.737,92.844 49.969,92.076 49.969,91.128 L49.969,91.122 C49.969,90.174 50.737,89.406 51.684,89.406 Z" class="cls-3"/>
  </g>
</svg>
