<svg xmlns="http://www.w3.org/2000/svg" xmlns:xlink="http://www.w3.org/1999/xlink" preserveAspectRatio="xMidYMid" width="20" height="20" viewBox="0 0 20 20">
  <defs>
    <style>
      .cls-1 {
        fill: #fff;
        fill-rule: evenodd;
      }
    </style>
  </defs>
  <path d="M18.000,12.000 L12.000,12.000 L12.000,18.000 C12.000,19.105 11.105,20.000 10.000,20.000 C8.895,20.000 8.000,19.105 8.000,18.000 L8.000,12.000 L2.000,12.000 C0.895,12.000 -0.000,11.105 -0.000,10.000 C-0.000,8.895 0.895,8.000 2.000,8.000 L8.000,8.000 L8.000,2.000 C8.000,0.895 8.895,-0.000 10.000,-0.000 C11.105,-0.000 12.000,0.895 12.000,2.000 L12.000,8.000 L18.000,8.000 C19.105,8.000 20.000,8.895 20.000,10.000 C20.000,11.105 19.105,12.000 18.000,12.000 Z" class="cls-1"/>
</svg>
