<svg xmlns="http://www.w3.org/2000/svg" xmlns:xlink="http://www.w3.org/1999/xlink" preserveAspectRatio="xMidYMid" width="29.91" height="29.47" viewBox="0 0 29.91 29.47">
  <defs>
    <style>
      .cls-1 {
        fill: #fff;
        fill-rule: evenodd;
      }
    </style>
  </defs>
  <path d="M28.542,16.012 C27.652,16.894 26.471,17.380 25.207,17.380 L25.108,17.380 C25.075,17.720 25.047,18.903 25.047,20.246 L25.047,23.516 C25.047,25.062 24.216,25.374 23.188,24.208 L18.936,19.370 C18.164,18.494 17.478,17.724 17.171,17.380 L9.827,17.380 C7.229,17.380 5.115,15.284 5.115,12.706 L5.115,4.678 C5.115,3.430 5.601,2.258 6.495,1.375 C7.384,0.490 8.568,0.005 9.827,0.005 L25.207,0.005 C26.471,0.005 27.652,0.490 28.542,1.375 C29.428,2.258 29.919,3.430 29.919,4.678 L29.919,12.706 C29.919,13.955 29.428,15.129 28.542,16.012 ZM12.504,7.179 C11.454,7.179 10.598,8.031 10.598,9.075 C10.598,10.114 11.454,10.960 12.504,10.960 C13.556,10.960 14.412,10.114 14.412,9.075 C14.412,8.031 13.556,7.179 12.504,7.179 ZM17.814,7.179 C16.763,7.179 15.907,8.030 15.907,9.074 C15.907,10.114 16.763,10.958 17.814,10.958 C18.867,10.958 19.724,10.114 19.724,9.074 C19.724,8.030 18.867,7.179 17.814,7.179 ZM23.121,7.178 C22.074,7.178 21.219,8.029 21.219,9.074 C21.219,10.113 22.074,10.960 23.121,10.960 C24.172,10.960 25.030,10.113 25.030,9.074 C25.030,8.029 24.172,7.178 23.121,7.178 ZM9.828,19.002 L16.434,19.002 C16.776,19.388 17.224,19.893 17.702,20.436 L19.027,21.943 L12.747,21.943 C12.440,22.287 11.758,23.054 10.985,23.935 L6.728,28.771 C5.703,29.936 4.867,29.623 4.867,28.080 L4.867,24.809 C4.867,23.466 4.843,22.282 4.814,21.943 L4.708,21.943 C3.448,21.943 2.269,21.458 1.375,20.574 C0.486,19.691 0.000,18.517 0.000,17.269 L0.000,9.242 C0.000,7.993 0.486,6.821 1.375,5.938 C1.970,5.353 2.692,4.960 3.480,4.750 L3.480,12.705 C3.480,16.178 6.326,19.002 9.828,19.002 Z" class="cls-1"/>
</svg>
