<svg xmlns="http://www.w3.org/2000/svg" xmlns:xlink="http://www.w3.org/1999/xlink" preserveAspectRatio="xMidYMid"
  width="15.469" height="15.781" viewBox="0 0 15.469 15.781">
  <defs>
    <style>
      .cls-purple {
        fill: #675190;
        fill-rule: evenodd;
      }
    </style>
  </defs>
  <path
    d="M15.339,7.281 L13.974,7.253 C14.083,6.855 14.143,6.436 14.143,6.002 C14.143,3.439 12.097,1.361 9.573,1.361 C9.106,1.361 8.656,1.433 8.232,1.564 L8.199,0.173 C8.640,0.066 9.100,0.008 9.573,0.008 C12.833,0.008 15.476,2.692 15.476,6.002 C15.476,6.441 15.428,6.869 15.339,7.281 ZM9.588,3.916 C9.094,3.916 8.643,4.104 8.300,4.412 L8.266,2.981 C8.668,2.793 9.116,2.687 9.588,2.687 C11.333,2.687 12.747,4.122 12.747,5.894 C12.747,6.368 12.645,6.818 12.463,7.223 L11.055,7.194 C11.354,6.847 11.536,6.392 11.536,5.894 C11.536,4.802 10.664,3.916 9.588,3.916 ZM10.353,11.600 C11.336,10.617 11.942,9.761 14.109,11.502 C16.277,13.244 14.612,14.404 13.660,15.357 C12.561,16.455 8.464,15.414 4.415,11.367 C0.366,7.319 -0.676,3.225 0.424,2.126 C1.376,1.174 2.537,-0.490 4.279,1.677 C6.021,3.842 5.165,4.448 4.182,5.431 C3.496,6.118 4.929,7.854 6.429,9.353 C7.929,10.853 9.667,12.286 10.353,11.600 Z"
    class="cls-purple" />
</svg>