<svg xmlns="http://www.w3.org/2000/svg" xmlns:xlink="http://www.w3.org/1999/xlink" preserveAspectRatio="xMidYMid"
  width="20.625" height="19.375" viewBox="0 0 20.625 19.375">
  <defs>
    <style>
      .cls-purple {
        fill: #675190;
        fill-rule: evenodd;
      }
    </style>
  </defs>
  <path
    d="M15.847,18.872 C18.282,17.077 19.873,14.132 19.878,10.798 C19.869,5.324 15.601,0.902 10.321,0.893 C5.038,0.902 0.768,5.324 0.759,10.798 C0.764,14.130 2.353,17.074 4.787,18.869 C1.914,17.051 0.008,13.862 0.008,10.230 C0.008,4.574 4.623,-0.006 10.321,-0.006 C16.014,-0.006 20.629,4.574 20.629,10.230 C20.629,13.864 18.721,17.054 15.847,18.872 ZM10.250,2.981 C14.106,2.981 17.232,6.082 17.234,9.914 C17.233,12.251 16.064,14.315 14.279,15.572 C15.663,14.364 16.545,12.548 16.548,10.515 C16.542,6.875 13.729,3.935 10.252,3.927 C6.774,3.935 3.960,6.875 3.954,10.515 C3.958,12.553 4.844,14.374 6.235,15.582 C4.441,14.327 3.266,12.258 3.266,9.914 C3.266,6.082 6.394,2.981 10.250,2.981 ZM6.015,9.940 C6.016,7.622 7.907,5.745 10.240,5.745 C12.573,5.745 14.464,7.622 14.464,9.940 C14.464,11.167 13.930,12.267 13.085,13.034 C13.606,12.351 13.920,11.478 13.921,10.527 C13.918,8.335 12.261,6.563 10.212,6.558 C8.162,6.563 6.505,8.335 6.501,10.527 C6.503,11.412 6.777,12.227 7.235,12.886 C6.481,12.129 6.015,11.088 6.015,9.940 ZM10.167,9.080 C11.424,9.080 12.443,9.725 12.443,11.148 C12.443,11.370 12.415,11.584 12.368,11.790 C12.367,11.797 12.370,11.802 12.369,11.809 L11.388,18.986 C11.354,19.208 11.164,19.388 10.965,19.388 L9.368,19.388 C9.170,19.388 8.979,19.208 8.945,18.986 L7.968,11.809 C7.968,11.807 7.969,11.806 7.968,11.804 C7.920,11.594 7.891,11.375 7.891,11.148 C7.891,9.725 8.909,9.080 10.167,9.080 Z"
    class="cls-purple" />
</svg>