<svg xmlns="http://www.w3.org/2000/svg" xmlns:xlink="http://www.w3.org/1999/xlink" preserveAspectRatio="xMidYMid"
  width="29.53" height="30" viewBox="0 0 29.53 30">
  <defs>
    <style>
      .cls-soc {
        fill: #5c5c5c;
        fill-rule: evenodd;
      }
    </style>
  </defs>
  <path
    d="M14.765,-0.002 C6.614,-0.002 0.006,6.716 0.006,15.001 C0.006,23.287 6.614,30.004 14.765,30.004 C22.916,30.004 29.524,23.287 29.524,15.001 C29.524,6.716 22.916,-0.002 14.765,-0.002 ZM18.672,14.938 L16.116,14.938 C16.116,19.090 16.116,24.204 16.116,24.204 L12.328,24.204 C12.328,24.204 12.328,19.142 12.328,14.938 L10.526,14.938 L10.526,11.667 L12.328,11.667 L12.328,9.547 C12.328,8.030 13.036,5.662 16.151,5.662 L18.956,5.673 L18.956,8.850 C18.956,8.850 17.250,8.850 16.919,8.850 C16.587,8.850 16.116,9.019 16.116,9.740 L16.116,11.667 L19.004,11.667 L18.672,14.938 Z"
    class="cls-soc" />
</svg>