<svg xmlns="http://www.w3.org/2000/svg" xmlns:xlink="http://www.w3.org/1999/xlink" preserveAspectRatio="xMidYMid"
  width="14" height="18" viewBox="0 0 14 18">
  <defs>
    <style>
      .cls-grey {
        fill: #909090;
        fill-rule: evenodd;
      }
    </style>
  </defs>
  <path
    d="M4.939,9.293 L5.008,9.225 L5.078,9.293 C5.684,9.894 6.356,10.225 6.967,10.225 C7.609,10.225 8.272,9.931 8.884,9.376 L8.936,9.330 L9.070,9.399 C9.184,9.508 9.388,9.666 9.481,9.713 L9.607,9.778 L9.593,9.792 L9.642,9.823 C9.757,9.895 9.881,9.965 10.022,10.039 C10.164,10.105 10.286,10.155 10.416,10.200 C10.441,10.209 11.045,10.415 11.735,10.752 L11.859,10.792 C12.513,11.055 12.790,11.425 12.801,11.438 C13.817,13.028 13.988,15.499 14.005,15.888 C13.997,16.430 13.851,16.571 13.812,16.598 C11.533,17.672 8.090,17.952 7.424,17.996 L7.405,17.997 L7.386,17.992 C7.364,17.984 7.341,17.981 7.312,17.981 L7.312,17.981 L7.289,17.982 C7.107,17.995 6.955,18.002 6.815,18.002 L6.705,18.002 C6.290,17.975 2.577,17.719 0.201,16.606 C0.153,16.585 0.012,16.414 0.002,15.915 C0.003,15.878 0.125,13.131 1.192,11.460 C1.244,11.392 1.535,11.036 2.115,10.802 C2.625,10.637 3.885,10.196 4.575,9.670 C4.604,9.652 4.633,9.620 4.664,9.588 C4.714,9.530 4.819,9.411 4.939,9.293 ZM3.858,3.694 L3.881,3.665 C3.974,3.595 4.019,3.484 4.002,3.370 C3.770,1.900 3.921,2.288 3.974,2.135 C4.377,0.829 5.650,0.219 5.900,0.110 C5.952,0.089 6.049,0.058 6.152,0.041 L6.179,0.034 L6.389,0.022 L6.390,0.036 L6.435,0.031 C6.477,0.027 6.518,0.020 6.566,0.010 L6.613,-0.002 C6.653,-0.002 7.144,0.064 7.884,0.302 L8.394,0.487 C9.326,0.777 9.760,1.320 9.839,1.428 C10.588,2.324 10.388,2.672 10.202,3.396 C10.181,3.479 10.194,3.566 10.238,3.637 L10.280,3.693 C10.348,3.789 10.374,4.112 10.221,4.709 C10.191,4.904 10.122,5.062 10.021,5.167 C9.984,5.208 9.960,5.262 9.950,5.323 C9.697,6.886 8.367,8.634 6.967,8.634 C5.776,8.634 4.419,7.025 4.174,5.324 C4.166,5.263 4.143,5.208 4.100,5.160 C3.998,5.049 3.933,4.889 3.893,4.651 C3.776,4.204 3.764,3.844 3.858,3.694 Z"
    class="cls-grey" />
</svg>