<svg xmlns="http://www.w3.org/2000/svg" xmlns:xlink="http://www.w3.org/1999/xlink" preserveAspectRatio="xMidYMid"
  width="16" height="10" viewBox="0 0 16 10">
  <defs>
    <style>
      .cls-fff {
        fill: #fff;
        fill-rule: evenodd;
      }
    </style>
  </defs>
  <path
    d="M15.000,6.000 L1.000,6.000 C0.448,6.000 -0.000,5.552 -0.000,5.000 C-0.000,4.448 0.448,4.000 1.000,4.000 L15.000,4.000 C15.552,4.000 16.000,4.448 16.000,5.000 C16.000,5.552 15.552,6.000 15.000,6.000 ZM15.000,2.000 L1.000,2.000 C0.448,2.000 -0.000,1.552 -0.000,1.000 C-0.000,0.448 0.448,-0.000 1.000,-0.000 L15.000,-0.000 C15.552,-0.000 16.000,0.448 16.000,1.000 C16.000,1.552 15.552,2.000 15.000,2.000 ZM1.000,8.000 L15.000,8.000 C15.552,8.000 16.000,8.448 16.000,9.000 C16.000,9.552 15.552,10.000 15.000,10.000 L1.000,10.000 C0.448,10.000 -0.000,9.552 -0.000,9.000 C-0.000,8.448 0.448,8.000 1.000,8.000 Z"
    class="cls-fff" />
</svg>