<svg xmlns="http://www.w3.org/2000/svg" xmlns:xlink="http://www.w3.org/1999/xlink" preserveAspectRatio="xMidYMid"
  width="18" height="17" viewBox="0 0 18 17">
  <defs>
    <style>
      .cls-grey {
        fill: #909090;
        fill-rule: evenodd;
      }
    </style>
  </defs>
  <path
    d="M17.422,16.454 C17.050,16.807 16.553,17.001 16.025,17.001 C15.497,17.001 15.001,16.807 14.628,16.454 L12.745,14.676 C12.617,14.555 12.552,14.392 12.566,14.228 C12.579,14.062 12.672,13.909 12.820,13.807 C13.511,13.331 14.116,12.759 14.619,12.107 C14.738,11.953 14.917,11.865 15.111,11.865 C15.270,11.865 15.423,11.926 15.540,12.037 L17.422,13.815 C18.193,14.542 18.193,15.726 17.422,16.454 ZM7.841,14.809 C3.518,14.809 0.001,11.487 0.001,7.404 C0.001,3.321 3.518,-0.001 7.841,-0.001 C12.164,-0.001 15.680,3.321 15.680,7.404 C15.680,11.487 12.164,14.809 7.841,14.809 ZM7.841,2.222 C4.816,2.222 2.354,4.547 2.354,7.404 C2.354,10.262 4.815,12.586 7.841,12.586 C10.866,12.586 13.327,10.262 13.327,7.404 C13.327,4.547 10.866,2.222 7.841,2.222 Z"
    class="cls-grey" />
</svg>