<svg xmlns="http://www.w3.org/2000/svg" xmlns:xlink="http://www.w3.org/1999/xlink" preserveAspectRatio="xMidYMid"
  width="20" height="19" viewBox="0 0 20 19">
  <defs>
    <style>
      .cls-purple {
        fill: #675190;
        fill-rule: evenodd;
      }
    </style>
  </defs>
  <path
    d="M17.698,17.308 L2.298,17.308 C1.033,17.308 -0.001,16.311 -0.001,15.092 L-0.001,7.002 C-0.001,5.783 1.033,4.786 2.298,4.786 L10.902,4.786 L8.360,0.681 C8.226,0.470 8.296,0.191 8.515,0.062 L8.515,0.062 C8.734,-0.067 9.023,0.001 9.157,0.212 L11.736,4.288 L13.846,1.987 C14.020,1.805 14.317,1.793 14.506,1.960 C14.695,2.128 14.707,2.414 14.533,2.596 L12.607,4.786 L17.698,4.786 C18.962,4.786 19.996,5.783 19.996,7.002 L19.996,15.092 C19.996,16.311 18.962,17.308 17.698,17.308 ZM18.274,7.356 C18.274,6.747 17.757,6.249 17.125,6.249 L2.871,6.249 C2.239,6.249 1.721,6.747 1.721,7.356 L1.721,14.738 C1.721,15.347 2.239,15.846 2.871,15.846 L17.125,15.846 C17.757,15.846 18.274,15.347 18.274,14.738 L18.274,7.356 ZM5.219,17.875 L14.531,17.875 C14.842,17.875 15.094,18.127 15.094,18.437 C15.094,18.748 14.842,19.000 14.531,19.000 L5.219,19.000 C4.908,19.000 4.656,18.748 4.656,18.437 C4.656,18.127 4.908,17.875 5.219,17.875 Z"
    class="cls-purple" />
</svg>