<svg xmlns="http://www.w3.org/2000/svg" xmlns:xlink="http://www.w3.org/1999/xlink" preserveAspectRatio="xMidYMid"
  width="23" height="25" viewBox="0 0 23 25">
  <defs>
    <style>
      .cls-fff {
        fill: #fff;
        fill-rule: evenodd;
      }
    </style>
  </defs>
  <path
    d="M22.999,11.988 L22.036,11.988 L0.964,11.988 L0.002,11.988 L0.002,4.907 L5.615,4.907 C5.332,4.792 5.052,4.419 4.777,4.286 C4.770,4.282 4.762,4.279 4.755,4.276 C4.532,4.168 4.269,4.040 3.994,3.894 C2.631,3.172 0.959,2.000 2.239,0.523 C2.870,-0.207 4.110,-0.001 4.929,0.162 C5.785,0.331 6.618,0.598 7.405,0.977 C8.848,1.670 10.083,2.661 11.083,3.894 C11.184,4.018 11.282,4.146 11.379,4.275 C11.424,4.337 11.470,4.398 11.515,4.461 C11.539,4.495 11.559,4.529 11.576,4.563 C11.594,4.529 11.613,4.495 11.638,4.461 C11.682,4.398 11.728,4.337 11.774,4.275 C11.870,4.146 11.968,4.018 12.069,3.894 C13.069,2.661 14.305,1.671 15.747,0.977 C16.534,0.598 17.368,0.331 18.223,0.162 C19.042,-0.000 20.282,-0.207 20.914,0.523 C22.193,1.999 20.521,3.172 19.158,3.894 C18.883,4.040 18.620,4.168 18.397,4.276 C18.390,4.279 18.383,4.282 18.376,4.286 C18.100,4.419 17.820,4.792 17.537,4.907 L22.999,4.907 L22.999,11.988 ZM9.115,3.894 C8.558,3.365 7.934,2.905 7.259,2.542 C6.227,1.987 4.786,1.360 3.583,1.477 C2.859,1.546 3.765,2.043 3.983,2.179 C4.266,2.355 4.551,2.528 4.845,2.683 C5.452,3.004 6.074,3.293 6.724,3.515 C7.154,3.662 7.587,3.788 8.023,3.894 C8.472,4.003 8.925,4.092 9.382,4.157 C9.295,4.068 9.206,3.980 9.115,3.894 ZM18.308,2.683 C18.602,2.528 18.887,2.355 19.170,2.179 C19.388,2.043 20.294,1.546 19.570,1.477 C18.367,1.360 16.926,1.987 15.894,2.542 C15.219,2.905 14.595,3.365 14.038,3.894 C13.947,3.980 13.858,4.068 13.771,4.157 C14.228,4.092 14.681,4.003 15.130,3.894 C15.566,3.788 15.999,3.662 16.429,3.515 C17.079,3.293 17.700,3.003 18.308,2.683 ZM8.960,19.776 L12.027,16.854 L14.964,19.776 L14.964,13.001 L22.036,13.001 L22.036,24.999 L0.964,24.999 L0.964,13.001 L8.960,13.001 L8.960,19.776 Z"
    class="cls-fff" />
</svg>