<svg xmlns="http://www.w3.org/2000/svg" xmlns:xlink="http://www.w3.org/1999/xlink" preserveAspectRatio="xMidYMid"
  width="9.969" height="9.969" viewBox="0 0 9.969 9.969">
  <defs>
    <style>
      .cls-fff {
        fill: #fff;
        fill-rule: evenodd;
      }
    </style>
  </defs>
  <path
    d="M9.069,6.000 L6.000,6.000 L6.000,9.069 C6.000,9.566 5.597,9.969 5.100,9.969 L4.869,9.969 C4.372,9.969 3.969,9.566 3.969,9.069 L3.969,6.000 L0.900,6.000 C0.403,6.000 -0.000,5.597 -0.000,5.100 L-0.000,4.869 C-0.000,4.372 0.403,3.969 0.900,3.969 L3.969,3.969 L3.969,0.900 C3.969,0.403 4.372,0.000 4.869,0.000 L5.100,0.000 C5.597,0.000 6.000,0.403 6.000,0.900 L6.000,3.969 L9.069,3.969 C9.566,3.969 9.969,4.372 9.969,4.869 L9.969,5.100 C9.969,5.597 9.566,6.000 9.069,6.000 Z"
    class="cls-fff" />
</svg>