<svg xmlns="http://www.w3.org/2000/svg" xmlns:xlink="http://www.w3.org/1999/xlink" preserveAspectRatio="xMidYMid" width="134" height="120" viewBox="0 0 134 120">
  <defs>
    <style>
      .cls-1, .cls-2 {
        fill: #fff;
      }

      .cls-1 {
        fill-opacity: 0.05;
      }

      .cls-1, .cls-3 {
        fill-rule: evenodd;
      }

      .cls-3 {
        fill: #675190;
      }
    </style>
  </defs>
  <g>
    <path d="M2.222,67.072 C2.222,31.313 31.281,2.221 66.998,2.221 C102.715,2.221 131.773,31.313 131.773,67.072 C131.773,87.447 122.454,106.163 106.535,118.410 L108.112,119.989 C124.437,107.312 133.996,88.014 133.996,67.072 C133.996,30.086 103.941,-0.004 66.998,-0.004 C30.055,-0.004 -0.000,30.086 -0.000,67.072 C-0.000,88.014 9.558,107.312 25.883,119.989 L27.461,118.410 C11.541,106.163 2.222,87.447 2.222,67.072 Z" class="cls-1"/>
    <circle cx="67" cy="67" r="50" class="cls-2"/>
    <path d="M66.000,92.011 C58.270,92.011 52.004,85.456 52.004,77.370 L52.004,67.752 C66.652,73.467 76.422,69.844 79.996,67.964 L79.996,77.370 C79.996,85.456 73.730,92.011 66.000,92.011 ZM52.004,65.882 L52.004,61.796 C52.004,54.465 57.164,48.405 63.895,47.338 C64.056,45.373 65.143,42.385 70.299,42.385 C70.299,42.385 76.415,43.156 76.415,35.989 L79.247,35.989 C79.247,35.989 80.494,44.668 70.950,44.668 C70.950,44.668 67.789,44.834 67.801,47.290 C74.678,48.218 79.996,54.351 79.996,61.796 L79.996,65.877 C68.720,71.846 56.509,67.798 52.004,65.882 ZM68.420,61.213 L68.420,54.280 C68.420,52.883 67.337,51.747 66.000,51.747 C64.663,51.747 63.578,52.883 63.578,54.280 L63.578,61.213 C63.578,62.614 64.663,63.751 66.000,63.751 C67.334,63.751 68.420,62.614 68.420,61.213 Z" class="cls-3"/>
  </g>
</svg>
