<svg xmlns="http://www.w3.org/2000/svg" xmlns:xlink="http://www.w3.org/1999/xlink" preserveAspectRatio="xMidYMid"
  width="23.15" height="26.93" viewBox="0 0 23.15 26.93" fill="current">
  <path
    d="M22.374,9.031 C20.984,7.299 19.035,6.298 17.196,6.298 C14.762,6.298 13.733,7.454 12.045,7.454 C10.304,7.454 8.981,6.300 6.876,6.300 C4.808,6.300 2.610,7.555 1.216,9.701 C-0.746,12.721 -0.413,18.401 2.767,23.241 C3.904,24.971 5.423,26.918 7.410,26.936 C9.175,26.952 9.675,25.809 12.070,25.796 C14.465,25.783 14.918,26.948 16.684,26.932 C18.669,26.912 20.272,24.758 21.409,23.027 C22.224,21.787 22.527,21.161 23.160,19.758 C18.562,18.021 17.823,11.524 22.374,9.031 ZM15.350,4.364 C16.234,3.229 16.905,1.627 16.661,-0.011 C15.217,0.089 13.528,1.008 12.541,2.205 C11.646,3.293 10.907,4.905 11.194,6.473 C12.771,6.521 14.403,5.580 15.350,4.364 Z" />
</svg>