<svg xmlns="http://www.w3.org/2000/svg" xmlns:xlink="http://www.w3.org/1999/xlink" preserveAspectRatio="xMidYMid" width="134" height="120" viewBox="0 0 134 120">
  <defs>
    <style>
      .cls-1, .cls-2 {
        fill: #fff;
      }

      .cls-1 {
        fill-opacity: 0.05;
      }

      .cls-1, .cls-3 {
        fill-rule: evenodd;
      }

      .cls-3 {
        fill: #675190;
      }
    </style>
  </defs>
  <g>
    <path d="M2.222,67.072 C2.222,31.313 31.281,2.221 66.998,2.221 C102.715,2.221 131.773,31.313 131.773,67.072 C131.773,87.447 122.454,106.163 106.534,118.410 L108.112,119.989 C124.437,107.312 133.996,88.014 133.996,67.072 C133.996,30.086 103.941,-0.004 66.998,-0.004 C30.055,-0.004 -0.000,30.086 -0.000,67.072 C-0.000,88.014 9.558,107.312 25.883,119.989 L27.461,118.410 C11.542,106.163 2.222,87.447 2.222,67.072 Z" class="cls-1"/>
    <circle cx="67" cy="67" r="50" class="cls-2"/>
    <path d="M83.022,89.575 C89.637,84.576 93.957,76.376 93.972,67.093 C93.947,51.853 82.352,39.540 68.011,39.515 C53.659,39.540 42.060,51.853 42.035,67.093 C42.050,76.372 46.366,84.568 52.979,89.567 C45.174,84.505 39.995,75.626 39.995,65.513 C39.995,49.764 52.533,37.013 68.011,37.013 C83.474,37.013 96.012,49.764 96.012,65.513 C96.012,75.631 90.828,84.514 83.022,89.575 ZM67.818,45.327 C78.293,45.327 86.784,53.964 86.788,64.632 C86.785,71.140 83.611,76.886 78.762,80.385 C82.521,77.022 84.917,71.966 84.926,66.305 C84.909,56.171 77.267,47.984 67.822,47.963 C58.375,47.984 50.732,56.171 50.716,66.305 C50.725,71.981 53.133,77.051 56.911,80.414 C52.038,76.919 48.846,71.158 48.846,64.632 C48.846,53.964 57.342,45.327 67.818,45.327 ZM56.313,64.705 C56.315,58.252 61.452,53.025 67.791,53.025 C74.128,53.025 79.264,58.252 79.264,64.705 C79.264,68.120 77.815,71.184 75.518,73.320 C76.934,71.417 77.787,68.988 77.791,66.339 C77.782,60.235 73.280,55.300 67.714,55.287 C62.145,55.300 57.643,60.235 57.635,66.339 C57.638,68.803 58.384,71.071 59.628,72.909 C57.581,70.799 56.314,67.902 56.313,64.705 ZM67.592,62.309 C71.006,62.309 73.773,64.107 73.773,68.068 C73.773,68.686 73.697,69.283 73.571,69.857 C73.569,69.874 73.576,69.889 73.574,69.908 L70.908,89.893 C70.816,90.509 70.299,91.012 69.760,91.012 L65.421,91.012 C64.882,91.012 64.366,90.509 64.271,89.892 L61.618,69.908 C61.618,69.903 61.620,69.899 61.618,69.894 C61.487,69.310 61.408,68.701 61.408,68.068 C61.408,64.107 64.176,62.309 67.592,62.309 Z" class="cls-3"/>
  </g>
</svg>
