<svg xmlns="http://www.w3.org/2000/svg" xmlns:xlink="http://www.w3.org/1999/xlink" preserveAspectRatio="xMidYMid" width="134" height="120" viewBox="0 0 134 120">
  <defs>
    <style>
      .cls-1, .cls-2 {
        fill: #fff;
      }

      .cls-1 {
        fill-opacity: 0.05;
      }

      .cls-1, .cls-3 {
        fill-rule: evenodd;
      }

      .cls-3 {
        fill: #675190;
      }
    </style>
  </defs>
  <g>
    <path d="M2.222,67.072 C2.222,31.313 31.281,2.221 66.998,2.221 C102.715,2.221 131.773,31.313 131.773,67.072 C131.773,87.447 122.454,106.163 106.535,118.410 L108.112,119.989 C124.437,107.312 133.996,88.014 133.996,67.072 C133.996,30.086 103.941,-0.004 66.998,-0.004 C30.055,-0.004 -0.000,30.086 -0.000,67.072 C-0.000,88.014 9.558,107.312 25.883,119.989 L27.461,118.410 C11.541,106.163 2.222,87.447 2.222,67.072 Z" class="cls-1"/>
    <circle cx="67" cy="67" r="50" class="cls-2"/>
    <path d="M85.622,65.846 L81.823,65.771 C82.128,64.684 82.294,63.540 82.294,62.356 C82.294,55.361 76.604,49.692 69.584,49.692 C68.286,49.692 67.035,49.887 65.855,50.246 L65.763,46.450 C66.990,46.159 68.268,46.000 69.584,46.000 C78.650,46.000 86.000,53.322 86.000,62.356 C86.000,63.553 85.867,64.721 85.622,65.846 ZM69.627,56.665 C68.253,56.665 66.998,57.176 66.043,58.016 L65.949,54.113 C67.068,53.598 68.313,53.309 69.627,53.309 C74.479,53.309 78.412,57.227 78.412,62.061 C78.412,63.355 78.127,64.582 77.622,65.687 L73.705,65.610 C74.538,64.661 75.043,63.420 75.043,62.061 C75.043,59.081 72.619,56.665 69.627,56.665 ZM71.754,77.631 C74.488,74.950 76.174,72.615 82.201,77.365 C88.228,82.118 83.599,85.285 80.950,87.883 C77.894,90.880 66.500,88.041 55.238,76.998 C43.979,65.951 41.082,54.777 44.140,51.778 C46.789,49.180 50.017,44.641 54.861,50.553 C59.706,56.463 57.326,58.117 54.591,60.798 C52.682,62.672 56.669,67.409 60.841,71.501 C65.013,75.593 69.844,79.504 71.754,77.631 Z" class="cls-3"/>
  </g>
</svg>
