<svg xmlns="http://www.w3.org/2000/svg" xmlns:xlink="http://www.w3.org/1999/xlink" preserveAspectRatio="xMidYMid"
  width="23.65" height="27.66" viewBox="0 0 23.65 27.66" fill="current">
  <path
    d="M21.980,18.769 C21.050,18.769 20.296,18.004 20.296,17.060 L20.296,10.377 C20.296,9.433 21.050,8.668 21.980,8.668 C22.910,8.668 23.664,9.433 23.664,10.377 L23.664,17.060 C23.664,18.004 22.910,18.769 21.980,18.769 ZM18.037,22.240 L16.537,22.240 L16.537,25.958 C16.537,26.903 15.783,27.668 14.853,27.668 C13.924,27.668 13.170,26.903 13.170,25.958 L13.170,22.240 L10.549,22.240 L10.549,25.958 C10.549,26.903 9.796,27.668 8.866,27.668 C7.936,27.668 7.182,26.903 7.182,25.958 L7.182,22.240 L5.682,22.240 C4.957,22.240 4.369,21.653 4.369,20.928 L4.369,8.719 L19.350,8.719 L19.350,20.928 C19.350,21.653 18.762,22.240 18.037,22.240 ZM8.275,2.393 L6.891,0.384 C6.809,0.265 6.830,0.108 6.937,0.034 C7.044,-0.040 7.198,-0.003 7.280,0.116 L8.718,2.203 C9.665,1.830 10.717,1.622 11.826,1.622 C12.935,1.622 13.987,1.830 14.935,2.203 L16.373,0.116 C16.454,-0.003 16.608,-0.040 16.715,0.034 C16.823,0.108 16.843,0.265 16.761,0.384 L15.377,2.393 C17.577,3.417 19.120,5.362 19.317,7.631 L4.336,7.631 C4.532,5.362 6.075,3.417 8.275,2.393 ZM15.090,5.559 C15.548,5.559 15.919,5.188 15.919,4.730 C15.919,4.272 15.548,3.901 15.090,3.901 C14.632,3.901 14.261,4.272 14.261,4.730 C14.261,5.188 14.632,5.559 15.090,5.559 ZM8.666,5.559 C9.124,5.559 9.495,5.188 9.495,4.730 C9.495,4.272 9.124,3.901 8.666,3.901 C8.208,3.901 7.837,4.272 7.837,4.730 C7.837,5.188 8.208,5.559 8.666,5.559 ZM1.672,18.769 C0.743,18.769 -0.011,18.004 -0.011,17.060 L-0.011,10.377 C-0.011,9.433 0.743,8.668 1.672,8.668 C2.602,8.668 3.356,9.433 3.356,10.377 L3.356,17.060 C3.356,18.004 2.602,18.769 1.672,18.769 Z" />
</svg>