<svg xmlns="http://www.w3.org/2000/svg" xmlns:xlink="http://www.w3.org/1999/xlink" preserveAspectRatio="xMidYMid"
  width="21.4" height="21.5" viewBox="0 0 21.4 21.5" fill="current">
  <path
    d="M21.407,-0.001 C19.120,0.317 16.959,0.618 14.929,0.901 C13.010,1.168 11.564,1.422 9.840,1.662 C9.840,3.107 9.840,4.550 9.840,5.991 C9.840,7.433 9.840,8.874 9.840,10.315 C11.564,10.305 13.010,10.294 14.931,10.283 C16.961,10.271 19.120,10.258 21.407,10.244 C21.407,8.538 21.407,6.832 21.407,5.125 C21.407,3.419 21.407,1.710 21.407,-0.001 L21.407,-0.001 ZM8.846,1.801 C7.257,2.022 5.367,2.233 3.928,2.433 C2.555,2.625 1.244,2.807 -0.008,2.982 C-0.008,4.216 -0.008,5.448 -0.008,6.679 C-0.008,7.909 -0.008,9.141 -0.008,10.371 C1.242,10.363 2.555,10.356 3.928,10.348 C5.367,10.340 7.255,10.330 8.846,10.321 C8.846,8.902 8.846,7.483 8.846,6.063 C8.846,4.645 8.846,3.223 8.846,1.801 L8.846,1.801 ZM-0.008,11.098 C-0.008,12.331 -0.008,13.561 -0.008,14.792 C-0.008,16.023 -0.008,17.253 -0.008,18.483 C1.242,18.659 2.553,18.843 3.926,19.036 C5.365,19.238 7.255,19.451 8.846,19.674 C8.846,18.257 8.846,16.837 8.846,15.418 C8.846,13.999 8.846,12.580 8.846,11.159 C7.255,11.148 5.367,11.137 3.928,11.126 C2.553,11.117 1.242,11.107 -0.008,11.098 L-0.008,11.098 ZM9.840,19.814 C11.564,20.056 13.010,20.312 14.931,20.582 C16.961,20.867 19.120,21.170 21.407,21.491 C21.407,19.787 21.407,18.080 21.407,16.374 C21.407,14.668 21.407,12.961 21.407,11.252 C19.120,11.236 16.961,11.220 14.931,11.206 C13.010,11.192 11.564,11.178 9.840,11.166 C9.840,12.610 9.840,14.051 9.840,15.492 C9.840,16.933 9.840,18.374 9.840,19.814 Z" />
</svg>