<svg xmlns="http://www.w3.org/2000/svg" xmlns:xlink="http://www.w3.org/1999/xlink" preserveAspectRatio="xMidYMid" width="22" height="21" viewBox="0 0 22 21">
  <defs>
    <style>
      .cls-1 {
        fill: #fff;
        fill-rule: evenodd;
      }
    </style>
  </defs>
  <path d="M5.712,10.271 L5.792,10.196 L5.872,10.271 C6.573,10.936 7.350,11.302 8.057,11.302 C8.799,11.302 9.566,10.977 10.274,10.362 L10.333,10.312 L10.489,10.388 C10.621,10.509 10.857,10.683 10.964,10.735 L11.110,10.807 L11.094,10.823 L11.150,10.857 C11.283,10.936 11.426,11.014 11.590,11.095 C11.754,11.169 11.895,11.224 12.045,11.274 C12.074,11.284 12.773,11.512 13.571,11.884 L13.714,11.928 C14.471,12.218 14.791,12.628 14.803,12.642 C15.979,14.399 16.176,18.236 16.195,18.665 C16.187,19.265 16.018,19.421 15.973,19.450 C13.338,20.638 9.356,20.946 8.585,20.995 L8.564,20.997 L8.542,20.991 C8.516,20.983 8.489,20.979 8.456,20.979 L8.456,20.979 L8.429,20.980 C8.218,20.995 8.044,21.002 7.881,21.002 L7.753,21.002 C7.273,20.973 2.980,20.690 0.233,19.459 C0.177,19.435 0.014,19.247 0.003,18.696 C0.003,18.655 0.145,14.513 1.379,12.667 C1.439,12.591 1.775,12.197 2.445,11.939 C3.035,11.757 4.493,11.269 5.291,10.688 C5.325,10.668 5.358,10.633 5.393,10.597 C5.451,10.533 5.573,10.402 5.712,10.271 ZM13.924,11.307 L13.815,11.275 C13.637,11.192 13.448,11.109 13.254,11.030 C13.528,10.900 13.753,10.773 13.920,10.651 C13.947,10.635 13.974,10.608 13.999,10.581 C14.060,10.516 14.141,10.428 14.235,10.339 L14.286,10.292 L14.335,10.340 C14.860,10.836 15.440,11.108 15.968,11.108 C16.523,11.108 17.096,10.867 17.623,10.408 L17.660,10.377 L17.766,10.429 C17.864,10.519 18.041,10.648 18.120,10.688 L18.211,10.732 L18.200,10.743 L18.258,10.777 C18.358,10.837 18.465,10.895 18.585,10.954 C18.708,11.010 18.814,11.051 18.925,11.089 C18.946,11.095 19.462,11.263 20.058,11.540 L20.163,11.573 C20.706,11.781 20.942,12.069 20.965,12.099 C21.843,13.409 21.984,16.247 21.997,16.563 C21.991,17.002 21.870,17.115 21.839,17.134 C20.189,17.878 17.819,18.157 16.822,18.246 C16.732,16.943 16.413,13.875 15.346,12.279 L15.301,12.224 C15.086,11.954 14.612,11.572 13.924,11.307 ZM13.306,6.565 L13.325,6.543 C13.409,6.481 13.450,6.386 13.434,6.288 C13.235,5.089 13.364,4.586 13.409,4.460 C13.754,3.392 14.842,2.894 15.055,2.806 C15.098,2.790 15.181,2.765 15.269,2.750 L15.296,2.743 L15.460,2.734 L15.462,2.746 L15.511,2.741 C15.548,2.738 15.583,2.733 15.608,2.727 L15.664,2.715 C15.699,2.716 16.128,2.772 16.750,2.963 L17.189,3.115 C17.986,3.352 18.355,3.795 18.423,3.885 C19.063,4.616 18.892,5.717 18.732,6.309 C18.714,6.382 18.725,6.456 18.767,6.517 L18.802,6.563 C18.847,6.624 18.888,6.865 18.749,7.386 C18.724,7.544 18.665,7.671 18.581,7.755 C18.547,7.791 18.525,7.837 18.517,7.891 C18.300,9.168 17.164,10.596 15.968,10.596 C14.950,10.596 13.791,9.282 13.583,7.891 C13.574,7.837 13.552,7.791 13.515,7.749 C13.430,7.660 13.375,7.531 13.341,7.336 C13.240,6.975 13.230,6.683 13.306,6.565 ZM4.461,5.188 L4.489,5.156 C4.596,5.078 4.647,4.956 4.628,4.830 C4.359,3.205 4.535,2.529 4.595,2.360 C5.062,0.916 6.533,0.242 6.823,0.122 C6.883,0.098 6.995,0.065 7.114,0.045 L7.146,0.038 L7.389,0.024 L7.389,0.040 L7.442,0.034 C7.490,0.030 7.537,0.022 7.593,0.011 L7.648,-0.002 C7.693,-0.002 8.261,0.070 9.118,0.334 L9.708,0.538 C10.785,0.859 11.286,1.459 11.378,1.579 C12.244,2.569 12.013,4.058 11.798,4.858 C11.773,4.951 11.789,5.047 11.840,5.125 L11.888,5.187 C11.967,5.294 11.997,5.650 11.820,6.310 C11.785,6.525 11.705,6.700 11.589,6.816 C11.546,6.862 11.519,6.921 11.506,6.989 C11.213,8.716 9.676,10.648 8.056,10.648 C6.680,10.648 5.111,8.870 4.827,6.990 C4.818,6.923 4.791,6.861 4.741,6.808 C4.624,6.686 4.549,6.509 4.503,6.246 C4.366,5.751 4.353,5.353 4.461,5.188 Z" class="cls-1"/>
</svg>
