<svg xmlns="http://www.w3.org/2000/svg" xmlns:xlink="http://www.w3.org/1999/xlink" preserveAspectRatio="xMidYMid"
  width="29.53" height="30" viewBox="0 0 29.53 30">
  <defs>
    <style>
      .cls-soc {
        fill: #5c5c5c;
        fill-rule: evenodd;
      }
    </style>
  </defs>
  <path
    d="M14.763,30.003 C6.612,30.003 0.004,23.287 0.004,15.000 C0.004,6.715 6.612,-0.003 14.763,-0.003 C22.914,-0.003 29.523,6.715 29.523,15.000 C29.523,23.287 22.914,30.003 14.763,30.003 ZM12.054,5.583 L11.336,8.363 L11.263,8.363 L10.508,5.583 L9.339,5.583 L10.721,9.782 L10.721,12.539 L11.882,12.539 L11.882,9.654 L13.234,5.583 L12.054,5.583 ZM16.312,8.611 C16.312,8.219 16.175,7.897 15.904,7.650 C15.630,7.402 15.281,7.277 14.854,7.277 C14.385,7.277 14.012,7.397 13.734,7.630 C13.456,7.868 13.318,8.184 13.318,8.581 L13.318,11.241 C13.318,11.677 13.454,12.024 13.724,12.284 C13.994,12.539 14.356,12.668 14.807,12.668 C15.276,12.668 15.643,12.543 15.912,12.294 C16.178,12.046 16.312,11.702 16.312,11.261 L16.312,8.611 ZM20.092,7.407 L19.060,7.407 L19.060,11.302 C18.964,11.415 18.858,11.507 18.742,11.580 C18.626,11.652 18.530,11.689 18.454,11.689 C18.358,11.689 18.287,11.660 18.245,11.605 C18.202,11.552 18.178,11.465 18.178,11.342 L18.178,7.407 L17.149,7.407 L17.149,11.696 C17.149,12.004 17.209,12.232 17.329,12.384 C17.450,12.537 17.629,12.614 17.869,12.614 C18.062,12.614 18.261,12.559 18.467,12.450 C18.673,12.342 18.871,12.181 19.060,11.973 L19.060,12.539 L20.092,12.539 L20.092,7.407 ZM24.018,17.522 C24.018,15.664 22.537,14.159 20.710,14.159 L9.217,14.159 C7.390,14.159 5.909,15.664 5.909,17.522 L5.909,20.225 C5.909,22.082 7.390,23.588 9.217,23.588 L20.710,23.588 C22.537,23.588 24.018,22.082 24.018,20.225 L24.018,17.522 ZM19.778,21.788 C19.367,21.788 19.043,21.659 18.808,21.404 C18.573,21.149 18.454,20.797 18.454,20.347 L18.454,18.252 C18.454,17.851 18.584,17.521 18.844,17.267 C19.103,17.011 19.436,16.885 19.846,16.885 C20.266,16.885 20.588,17.003 20.813,17.237 C21.039,17.474 21.150,17.812 21.150,18.252 L21.150,19.442 L19.399,19.442 L19.399,20.319 C19.399,20.566 19.428,20.735 19.488,20.831 C19.549,20.925 19.653,20.971 19.799,20.971 C19.950,20.971 20.057,20.931 20.117,20.851 C20.176,20.772 20.209,20.594 20.209,20.319 L20.209,20.108 L21.150,20.108 L21.150,20.347 C21.150,20.825 21.037,21.185 20.806,21.427 C20.577,21.668 20.234,21.788 19.778,21.788 ZM20.209,18.718 L20.209,18.247 C20.209,18.051 20.176,17.910 20.112,17.829 C20.050,17.742 19.946,17.700 19.808,17.700 C19.661,17.700 19.557,17.742 19.493,17.829 C19.429,17.910 19.399,18.051 19.399,18.247 L19.399,18.718 L20.209,18.718 ZM17.136,21.720 C16.956,21.720 16.796,21.687 16.657,21.619 C16.516,21.551 16.385,21.446 16.265,21.302 L16.265,21.659 L15.339,21.659 L15.339,15.344 L16.265,15.344 L16.265,17.379 C16.389,17.237 16.521,17.128 16.657,17.054 C16.797,16.980 16.938,16.944 17.081,16.944 C17.370,16.944 17.592,17.043 17.744,17.242 C17.898,17.440 17.974,17.730 17.974,18.112 L17.974,20.698 C17.974,21.027 17.902,21.280 17.758,21.457 C17.616,21.633 17.407,21.720 17.136,21.720 ZM17.030,18.163 C17.030,18.005 16.998,17.886 16.934,17.804 C16.867,17.724 16.772,17.684 16.648,17.684 C16.583,17.684 16.518,17.698 16.454,17.730 C16.391,17.760 16.327,17.807 16.265,17.873 L16.265,20.775 C16.338,20.850 16.412,20.907 16.482,20.939 C16.553,20.971 16.626,20.989 16.703,20.989 C16.816,20.989 16.897,20.957 16.951,20.891 C17.003,20.825 17.030,20.719 17.030,20.569 L17.030,18.163 ZM13.734,21.149 C13.564,21.337 13.389,21.480 13.205,21.581 C13.023,21.681 12.845,21.728 12.673,21.728 C12.461,21.728 12.303,21.659 12.195,21.521 C12.087,21.380 12.034,21.175 12.034,20.897 L12.034,17.001 L12.950,17.001 L12.950,20.575 C12.950,20.685 12.969,20.764 13.006,20.813 C13.046,20.863 13.109,20.887 13.195,20.887 C13.260,20.887 13.347,20.855 13.450,20.790 C13.554,20.723 13.648,20.641 13.734,20.541 L13.734,17.001 L14.650,17.001 L14.650,21.659 L13.734,21.659 L13.734,21.149 ZM10.563,21.659 L9.531,21.659 L9.531,16.263 L8.462,16.263 L8.462,15.344 L11.631,15.344 L11.631,16.263 L10.563,16.263 L10.563,21.659 ZM14.804,11.779 C14.667,11.779 14.562,11.741 14.490,11.664 C14.416,11.588 14.379,11.479 14.379,11.339 L14.379,8.542 C14.379,8.431 14.419,8.339 14.497,8.271 C14.576,8.201 14.678,8.166 14.804,8.166 C14.940,8.166 15.051,8.201 15.135,8.271 C15.219,8.339 15.261,8.431 15.261,8.542 L15.261,11.339 C15.261,11.476 15.219,11.584 15.137,11.664 C15.055,11.741 14.944,11.779 14.804,11.779 Z"
    class="cls-soc" />
</svg>