<svg xmlns="http://www.w3.org/2000/svg" xmlns:xlink="http://www.w3.org/1999/xlink" preserveAspectRatio="xMidYMid"
  width="29.53" height="30" viewBox="0 0 29.53 30">
  <defs>
    <style>
      .cls-soc {
        fill: #5c5c5c;
        fill-rule: evenodd;
      }
    </style>
  </defs>
  <path
    d="M14.771,-0.002 C6.620,-0.002 0.011,6.716 0.011,15.001 C0.011,23.287 6.620,30.004 14.771,30.004 C22.922,30.004 29.530,23.287 29.530,15.001 C29.530,6.716 22.922,-0.002 14.771,-0.002 ZM22.206,11.976 C22.214,12.139 22.217,12.302 22.217,12.465 C22.217,17.462 18.476,23.224 11.634,23.224 C9.533,23.224 7.578,22.598 5.932,21.525 C6.223,21.559 6.519,21.577 6.819,21.577 C8.562,21.577 10.166,20.973 11.439,19.959 C9.811,19.928 8.438,18.835 7.964,17.333 C8.191,17.378 8.424,17.401 8.664,17.401 C9.004,17.401 9.332,17.355 9.644,17.268 C7.942,16.921 6.660,15.392 6.660,13.561 C6.660,13.545 6.660,13.529 6.661,13.513 C7.162,13.796 7.736,13.967 8.345,13.987 C7.347,13.307 6.691,12.151 6.691,10.839 C6.691,10.146 6.874,9.496 7.194,8.938 C9.029,11.226 11.770,12.731 14.861,12.888 C14.798,12.612 14.765,12.323 14.765,12.027 C14.765,9.939 16.430,8.246 18.484,8.246 C19.554,8.246 20.521,8.705 21.199,9.440 C22.047,9.271 22.843,8.955 23.562,8.522 C23.284,9.406 22.694,10.147 21.926,10.614 C22.678,10.523 23.395,10.319 24.062,10.019 C23.564,10.777 22.933,11.443 22.206,11.976 Z"
    class="cls-soc" />
</svg>