<svg xmlns="http://www.w3.org/2000/svg" xmlns:xlink="http://www.w3.org/1999/xlink" preserveAspectRatio="xMidYMid" width="15" height="24" viewBox="0 0 15 24">
  <defs>
    <style>
      .cls-1 {
        fill: #84b82a;
        fill-rule: evenodd;
      }
    </style>
  </defs>
  <path d="M12.878,-0.000 L2.121,-0.000 C0.955,-0.000 -0.000,0.977 -0.000,2.172 L-0.000,21.827 C-0.000,23.022 0.955,23.999 2.121,23.999 L12.878,23.999 C14.045,23.999 15.000,23.022 15.000,21.827 L15.000,2.172 C15.000,0.977 14.045,-0.000 12.878,-0.000 ZM5.993,1.558 L8.969,1.558 C9.135,1.558 9.272,1.682 9.272,1.834 C9.272,1.986 9.135,2.110 8.969,2.110 L5.993,2.110 C5.827,2.110 5.690,1.986 5.690,1.834 C5.690,1.682 5.827,1.558 5.993,1.558 ZM7.481,22.892 C7.085,22.892 6.765,22.563 6.765,22.158 C6.765,21.753 7.085,21.425 7.481,21.425 C7.876,21.425 8.197,21.753 8.197,22.158 C8.197,22.563 7.876,22.892 7.481,22.892 ZM12.997,20.502 L1.965,20.502 L1.965,3.497 L12.997,3.497 L12.997,20.502 Z" class="cls-1"/>
</svg>
