<svg xmlns="http://www.w3.org/2000/svg" xmlns:xlink="http://www.w3.org/1999/xlink" preserveAspectRatio="xMidYMid"
  width="65.969" height="44" viewBox="0 0 65.969 44">
  <defs>
    <style>
      .cls-prp {
        fill: #675190;
        fill-rule: evenodd;
      }
    </style>
  </defs>
  <path
    d="M65.433,34.587 L56.561,43.461 C55.709,44.315 54.142,44.129 53.062,43.049 C51.981,41.968 51.793,40.399 52.646,39.548 L61.519,30.671 C62.371,29.818 63.939,30.006 65.018,31.086 C66.099,32.166 66.285,33.734 65.433,34.587 ZM52.151,38.635 C52.142,38.644 52.131,38.649 52.121,38.659 C51.678,39.096 51.128,39.380 50.456,39.362 L45.988,39.058 C45.957,39.058 45.927,39.059 45.896,39.058 L43.332,38.973 L41.813,38.924 C41.811,38.923 41.809,38.922 41.806,38.922 L40.168,38.814 L39.689,38.799 L39.008,38.781 C37.745,38.745 36.706,38.025 36.396,37.069 C36.391,37.054 36.388,37.039 36.384,37.025 C36.361,36.949 36.344,36.872 36.330,36.794 C36.325,36.766 36.321,36.739 36.317,36.711 C36.306,36.621 36.299,36.529 36.302,36.436 C36.300,36.432 36.301,36.428 36.301,36.425 L36.269,35.890 C36.269,35.886 36.269,35.883 36.271,35.878 C36.274,35.786 36.285,35.695 36.302,35.606 C36.306,35.578 36.313,35.550 36.319,35.523 C36.337,35.446 36.359,35.370 36.387,35.295 C36.392,35.282 36.395,35.267 36.401,35.253 C36.766,34.315 37.845,33.657 39.107,33.694 L39.787,33.715 L40.267,33.727 L43.079,33.872 L33.504,24.294 L33.197,23.985 L32.760,23.549 C31.950,22.739 31.700,21.630 32.073,20.824 C32.078,20.811 32.085,20.800 32.091,20.788 C32.122,20.726 32.157,20.665 32.195,20.607 C32.209,20.586 32.221,20.565 32.237,20.546 C32.283,20.481 32.335,20.417 32.393,20.360 C32.394,20.356 32.396,20.354 32.398,20.352 L32.901,19.849 C32.903,19.847 32.905,19.845 32.908,19.844 C32.966,19.786 33.029,19.736 33.094,19.688 C33.113,19.673 33.134,19.660 33.155,19.646 C33.213,19.608 33.274,19.573 33.337,19.542 C33.348,19.536 33.360,19.529 33.372,19.524 C34.178,19.150 35.287,19.402 36.096,20.211 L36.532,20.649 L36.841,20.956 L41.397,25.514 C41.145,25.035 41.031,24.534 41.067,24.083 C41.067,24.075 41.067,24.068 41.069,24.061 C41.076,23.975 41.089,23.891 41.108,23.810 C41.110,23.798 41.113,23.786 41.115,23.775 C41.136,23.691 41.162,23.610 41.195,23.532 C41.203,23.512 41.214,23.494 41.222,23.475 C41.249,23.418 41.279,23.363 41.312,23.309 C41.326,23.287 41.340,23.264 41.356,23.242 C41.402,23.177 41.452,23.115 41.509,23.057 C41.511,23.055 41.512,23.053 41.514,23.050 L42.011,22.552 C42.554,22.010 43.436,21.968 44.286,22.343 C43.910,21.494 43.952,20.611 44.492,20.071 L44.990,19.573 C45.531,19.032 46.414,18.989 47.262,19.366 C46.888,18.515 46.930,17.632 47.472,17.090 L47.970,16.592 C47.971,16.591 47.974,16.589 47.976,16.587 C48.034,16.531 48.096,16.481 48.161,16.435 C48.183,16.420 48.205,16.405 48.227,16.392 C48.281,16.358 48.337,16.328 48.394,16.300 C48.413,16.292 48.431,16.281 48.450,16.274 C48.529,16.241 48.610,16.214 48.693,16.193 C48.704,16.191 48.717,16.189 48.727,16.187 C48.809,16.168 48.893,16.155 48.979,16.148 C48.987,16.147 48.994,16.145 49.001,16.146 C49.739,16.087 50.607,16.424 51.298,17.116 L51.773,17.588 L55.278,21.116 C55.346,21.191 55.408,21.267 55.467,21.345 L60.519,26.398 C61.586,27.466 61.769,29.014 60.928,29.855 L52.151,38.635 ZM52.864,15.544 C51.965,14.644 50.812,14.078 49.662,13.949 L49.662,3.698 L16.503,3.698 L16.503,9.874 C16.278,9.844 16.049,9.823 15.816,9.823 C15.108,9.823 14.408,9.961 13.730,10.233 L13.090,10.492 L12.807,10.599 L12.807,1.997 C12.807,0.896 13.701,-0.000 14.802,-0.000 L51.362,-0.000 C52.463,-0.000 53.358,0.896 53.358,1.997 L53.358,16.037 L53.346,16.024 L52.864,15.544 ZM12.807,28.518 L12.807,21.369 L16.342,19.929 L16.503,19.864 L16.503,26.816 L32.888,26.816 L36.585,30.515 L14.802,30.515 C13.701,30.515 12.807,29.620 12.807,28.518 ZM12.807,12.991 L13.449,12.736 L13.909,12.553 L14.560,12.290 C14.640,12.258 14.720,12.230 14.801,12.204 C14.823,12.197 14.846,12.192 14.868,12.185 C14.927,12.168 14.985,12.151 15.043,12.137 C15.068,12.131 15.093,12.126 15.118,12.121 C15.174,12.108 15.230,12.097 15.287,12.087 C15.311,12.083 15.335,12.081 15.359,12.077 C15.416,12.069 15.474,12.062 15.531,12.057 C15.552,12.055 15.574,12.053 15.596,12.052 C15.656,12.048 15.715,12.045 15.775,12.045 C15.793,12.044 15.811,12.044 15.829,12.044 C15.892,12.045 15.956,12.047 16.018,12.051 C16.031,12.052 16.045,12.053 16.058,12.054 C16.127,12.060 16.194,12.067 16.261,12.077 C16.268,12.078 16.276,12.079 16.283,12.080 C16.865,12.172 17.382,12.432 17.738,12.835 C17.748,12.847 17.757,12.860 17.767,12.872 C17.820,12.934 17.869,13.000 17.914,13.068 C17.929,13.092 17.945,13.117 17.960,13.142 C18.007,13.223 18.051,13.306 18.087,13.395 C18.090,13.399 18.092,13.402 18.093,13.405 L18.403,14.178 C18.404,14.182 18.406,14.185 18.406,14.189 C18.441,14.279 18.467,14.370 18.488,14.462 C18.496,14.489 18.500,14.518 18.506,14.546 C18.521,14.627 18.531,14.708 18.536,14.789 C18.537,14.805 18.539,14.820 18.540,14.836 C18.580,15.872 17.830,16.941 16.619,17.427 L15.967,17.687 L15.508,17.873 L12.807,18.974 L12.807,18.971 L10.570,19.881 L10.568,28.470 C10.570,30.830 12.480,32.741 14.838,32.742 L23.363,32.742 L17.623,38.484 C16.522,39.586 14.924,39.775 14.057,38.907 L4.996,29.842 C4.987,29.833 4.981,29.822 4.972,29.811 C4.520,29.354 4.227,28.786 4.245,28.092 L4.572,17.924 C4.574,17.917 4.577,17.910 4.578,17.904 C4.658,16.950 5.381,16.013 6.490,15.566 L12.807,12.997 L12.807,12.991 ZM13.290,39.547 C14.142,40.399 13.955,41.968 12.875,43.048 C11.795,44.129 10.228,44.314 9.376,43.463 L0.505,34.588 C-0.350,33.735 -0.163,32.168 0.917,31.087 C1.997,30.006 3.566,29.818 4.416,30.672 L13.290,39.547 Z"
    class="cls-prp" />
</svg>